<?xml version="1.0" encoding="UTF-8" standalone="no"?>
<!DOCTYPE svg PUBLIC "-//W3C//DTD SVG 1.1//EN"
 "http://www.w3.org/Graphics/SVG/1.1/DTD/svg11.dtd">
<!-- Generated by graphviz version 2.38.0 (20140413.2041)
 -->
<!-- Title: map Pages: 1 -->
<svg width="530pt" height="540pt"
 viewBox="0.00 0.00 529.91 539.86" xmlns="http://www.w3.org/2000/svg" xmlns:xlink="http://www.w3.org/1999/xlink">
<g id="graph0" class="graph" transform="scale(1 1) rotate(0) translate(281.738 277.071)">
<title>map</title>
<polygon fill="white" stroke="none" points="-281.738,262.788 -281.738,-277.071 248.167,-277.071 248.167,262.788 -281.738,262.788"/>
<!-- amsterdam -->
<g id="node1" class="node"><title>amsterdam</title>
<ellipse fill="none" stroke="black" cx="-148.77" cy="-232.477" rx="44.6926" ry="18"/>
<text text-anchor="middle" x="-148.77" y="-228.777" font-family="Times,serif" font-size="14.00">amsterdam</text>
</g>
<!-- athens -->
<g id="node2" class="node"><title>athens</title>
<ellipse fill="none" stroke="black" cx="118.326" cy="195.168" rx="27.8951" ry="18"/>
<text text-anchor="middle" x="118.326" y="198.868" font-family="Times,serif" font-size="14.00">athens</text>
</g>
<!-- rome -->
<g id="node20" class="node"><title>rome</title>
<ellipse fill="none" stroke="black" cx="-70.6845" cy="149.233" rx="27" ry="18"/>
<text text-anchor="middle" x="-70.6845" y="152.933" font-family="Times,serif" font-size="14.00">rome</text>
</g>
<!-- athens&#45;&#45;rome -->
<g id="edge1" class="edge"><title>athens&#45;&#45;rome</title>
<path fill="none" stroke="black" stroke-dasharray="5,2" d="M90.1973,194.995C77.0977,194.583 61.3414,193.614 47.3086,191.454 12.4728,186.091 -25.5244,170.608 -48.7319,159.961"/>
<text text-anchor="middle" x="11.3902" y="196.29" font-family="Times,serif" font-size="14.00" fill="#00008b">20</text>
</g>
<!-- berlin -->
<g id="node3" class="node"><title>berlin</title>
<ellipse fill="none" stroke="black" cx="-34.076" cy="-55.0539" rx="27" ry="18"/>
<text text-anchor="middle" x="-34.076" y="-51.3539" font-family="Times,serif" font-size="14.00">berlin</text>
</g>
<!-- berlin&#45;&#45;amsterdam -->
<g id="edge4" class="edge"><title>berlin&#45;&#45;amsterdam</title>
<path fill="none" stroke="black" d="M-44.8662,-71.7455C-66.5587,-105.302 -115.267,-180.65 -137.418,-214.915"/>
<text text-anchor="middle" x="-94.47" y="-146.864" font-family="Times,serif" font-size="14.00" fill="#00008b">7</text>
</g>
<!-- luxembourg -->
<g id="node14" class="node"><title>luxembourg</title>
<ellipse fill="none" stroke="black" cx="-107.063" cy="-19.3962" rx="48.9926" ry="18"/>
<text text-anchor="middle" x="-107.063" y="-15.6962" font-family="Times,serif" font-size="14.00">luxembourg</text>
</g>
<!-- berlin&#45;&#45;luxembourg -->
<g id="edge3" class="edge"><title>berlin&#45;&#45;luxembourg</title>
<path fill="none" stroke="black" d="M-55.9745,-44.3554C-62.7768,-41.0322 -70.3892,-37.3132 -77.6179,-33.7816"/>
<text text-anchor="middle" x="-70.1363" y="-42.9466" font-family="Times,serif" font-size="14.00" fill="#00008b">7</text>
</g>
<!-- warsaw -->
<g id="node27" class="node"><title>warsaw</title>
<ellipse fill="none" stroke="black" cx="66.8979" cy="-96.5707" rx="32.4942" ry="18"/>
<text text-anchor="middle" x="66.8979" y="-92.8707" font-family="Times,serif" font-size="14.00">warsaw</text>
</g>
<!-- berlin&#45;&#45;warsaw -->
<g id="edge2" class="edge"><title>berlin&#45;&#45;warsaw</title>
<path fill="none" stroke="black" d="M-10.9106,-64.5787C4.46071,-70.8988 24.6672,-79.207 40.6359,-85.7727"/>
<text text-anchor="middle" x="11.1386" y="-78.8836" font-family="Times,serif" font-size="14.00" fill="#00008b">5</text>
</g>
<!-- bratislava -->
<g id="node4" class="node"><title>bratislava</title>
<ellipse fill="none" stroke="black" cx="115.274" cy="-21.5343" rx="39.7935" ry="18"/>
<text text-anchor="middle" x="115.274" y="-17.8343" font-family="Times,serif" font-size="14.00">bratislava</text>
</g>
<!-- brussels -->
<g id="node5" class="node"><title>brussels</title>
<ellipse fill="none" stroke="black" cx="-142.459" cy="-111.389" rx="33.5952" ry="18"/>
<text text-anchor="middle" x="-142.459" y="-107.689" font-family="Times,serif" font-size="14.00">brussels</text>
</g>
<!-- brussels&#45;&#45;amsterdam -->
<g id="edge5" class="edge"><title>brussels&#45;&#45;amsterdam</title>
<path fill="none" stroke="black" d="M-143.404,-129.517C-144.594,-152.345 -146.626,-191.339 -147.819,-214.225"/>
<text text-anchor="middle" x="-149.11" y="-175.649" font-family="Times,serif" font-size="14.00" fill="#00008b">7</text>
</g>
<!-- brussels&#45;&#45;berlin -->
<g id="edge6" class="edge"><title>brussels&#45;&#45;berlin</title>
<path fill="none" stroke="black" d="M-118.136,-98.7465C-99.2874,-88.9495 -73.4285,-75.5086 -55.387,-66.1309"/>
<text text-anchor="middle" x="-89.9588" y="-86.0815" font-family="Times,serif" font-size="14.00" fill="#00008b">7</text>
</g>
<!-- brussels&#45;&#45;luxembourg -->
<g id="edge7" class="edge"><title>brussels&#45;&#45;luxembourg</title>
<path fill="none" stroke="black" d="M-135.634,-93.6521C-129.407,-77.4666 -120.246,-53.6591 -113.987,-37.3929"/>
<text text-anchor="middle" x="-128.323" y="-69.3528" font-family="Times,serif" font-size="14.00" fill="#00008b">2</text>
</g>
<!-- paris -->
<g id="node17" class="node"><title>paris</title>
<ellipse fill="none" stroke="black" cx="-149.072" cy="70.7119" rx="27" ry="18"/>
<text text-anchor="middle" x="-149.072" y="74.4119" font-family="Times,serif" font-size="14.00">paris</text>
</g>
<!-- brussels&#45;&#45;paris -->
<g id="edge8" class="edge"><title>brussels&#45;&#45;paris</title>
<path fill="none" stroke="black" d="M-146.813,-93.195C-150.901,-74.7311 -156.518,-45.2606 -157.409,-19.3837 -158.273,5.7349 -154.801,34.6488 -152.074,52.802"/>
<text text-anchor="middle" x="-160.914" y="-23.0364" font-family="Times,serif" font-size="14.00" fill="#00008b">3</text>
</g>
<!-- bucharest -->
<g id="node6" class="node"><title>bucharest</title>
<ellipse fill="none" stroke="black" cx="205.171" cy="4.95402" rx="38.9931" ry="18"/>
<text text-anchor="middle" x="205.171" y="8.65402" font-family="Times,serif" font-size="14.00">bucharest</text>
</g>
<!-- budapest -->
<g id="node7" class="node"><title>budapest</title>
<ellipse fill="none" stroke="black" cx="95.5128" cy="67.274" rx="37.0935" ry="18"/>
<text text-anchor="middle" x="95.5128" y="70.974" font-family="Times,serif" font-size="14.00">budapest</text>
</g>
<!-- budapest&#45;&#45;bratislava -->
<g id="edge9" class="edge"><title>budapest&#45;&#45;bratislava</title>
<path fill="none" stroke="black" d="M99.5119,49.3023C102.94,33.8945 107.854,11.8107 111.281,-3.58938"/>
<text text-anchor="middle" x="101.897" y="19.0536" font-family="Times,serif" font-size="14.00" fill="#00008b">2</text>
</g>
<!-- budapest&#45;&#45;bucharest -->
<g id="edge10" class="edge"><title>budapest&#45;&#45;bucharest</title>
<path fill="none" stroke="black" d="M119.85,53.4432C137.896,43.1874 162.403,29.2593 180.523,18.9617"/>
<text text-anchor="middle" x="143.159" y="32.4181" font-family="Times,serif" font-size="14.00" fill="#00008b">10</text>
</g>
<!-- ljubljana -->
<g id="node13" class="node"><title>ljubljana</title>
<ellipse fill="none" stroke="black" cx="12.8867" cy="103.863" rx="36.2938" ry="18"/>
<text text-anchor="middle" x="12.8867" y="107.563" font-family="Times,serif" font-size="14.00">ljubljana</text>
</g>
<!-- budapest&#45;&#45;ljubljana -->
<g id="edge11" class="edge"><title>budapest&#45;&#45;ljubljana</title>
<path fill="none" stroke="black" d="M67.9995,79.4575C59.0799,83.4072 49.1907,87.7864 40.2798,91.7323"/>
<text text-anchor="middle" x="50.6364" y="81.7963" font-family="Times,serif" font-size="14.00" fill="#00008b">4</text>
</g>
<!-- copenhagen -->
<g id="node8" class="node"><title>copenhagen</title>
<ellipse fill="none" stroke="black" cx="-29.7619" cy="-148.38" rx="47.3916" ry="18"/>
<text text-anchor="middle" x="-29.7619" y="-144.68" font-family="Times,serif" font-size="14.00">copenhagen</text>
</g>
<!-- copenhagen&#45;&#45;berlin -->
<g id="edge12" class="edge"><title>copenhagen&#45;&#45;berlin</title>
<path fill="none" stroke="black" d="M-30.6143,-129.942C-31.3755,-113.474 -32.484,-89.4944 -33.2401,-73.1362"/>
<text text-anchor="middle" x="-35.4291" y="-105.298" font-family="Times,serif" font-size="14.00" fill="#00008b">6</text>
</g>
<!-- stockholm -->
<g id="node22" class="node"><title>stockholm</title>
<ellipse fill="none" stroke="black" cx="-4.04397" cy="-241.48" rx="42.7926" ry="18"/>
<text text-anchor="middle" x="-4.04397" y="-237.78" font-family="Times,serif" font-size="14.00">stockholm</text>
</g>
<!-- copenhagen&#45;&#45;stockholm -->
<g id="edge13" class="edge"><title>copenhagen&#45;&#45;stockholm</title>
<path fill="none" stroke="black" d="M-24.8033,-166.33C-20.2492,-182.816 -13.5367,-207.116 -8.98743,-223.585"/>
<text text-anchor="middle" x="-20.3935" y="-198.764" font-family="Times,serif" font-size="14.00" fill="#00008b">7</text>
</g>
<!-- dublin -->
<g id="node9" class="node"><title>dublin</title>
<ellipse fill="none" stroke="black" cx="-249.791" cy="-183.59" rx="27.8951" ry="18"/>
<text text-anchor="middle" x="-249.791" y="-179.89" font-family="Times,serif" font-size="14.00">dublin</text>
</g>
<!-- london -->
<g id="node12" class="node"><title>london</title>
<ellipse fill="none" stroke="black" cx="-239.106" cy="-12.7424" rx="29.795" ry="18"/>
<text text-anchor="middle" x="-239.106" y="-9.04241" font-family="Times,serif" font-size="14.00">london</text>
</g>
<!-- dublin&#45;&#45;london -->
<g id="edge14" class="edge"><title>dublin&#45;&#45;london</title>
<path fill="none" stroke="black" stroke-dasharray="5,2" d="M-248.647,-165.307C-246.591,-132.423 -242.292,-63.6822 -240.241,-30.8947"/>
<text text-anchor="middle" x="-247.942" y="-101.865" font-family="Times,serif" font-size="14.00" fill="#00008b">8</text>
</g>
<!-- helsinki -->
<g id="node10" class="node"><title>helsinki</title>
<ellipse fill="none" stroke="black" cx="159.387" cy="-255.071" rx="33.2948" ry="18"/>
<text text-anchor="middle" x="159.387" y="-251.371" font-family="Times,serif" font-size="14.00">helsinki</text>
</g>
<!-- helsinki&#45;&#45;stockholm -->
<g id="edge15" class="edge"><title>helsinki&#45;&#45;stockholm</title>
<path fill="none" stroke="black" d="M126.314,-252.321C100.945,-250.211 65.7396,-247.283 38.3093,-245.002"/>
<text text-anchor="middle" x="76.0845" y="-252.526" font-family="Times,serif" font-size="14.00" fill="#00008b">12</text>
</g>
<!-- lisbon -->
<g id="node11" class="node"><title>lisbon</title>
<ellipse fill="none" stroke="black" cx="-250.139" cy="167.218" rx="27.0966" ry="18"/>
<text text-anchor="middle" x="-250.139" y="170.918" font-family="Times,serif" font-size="14.00">lisbon</text>
</g>
<!-- madrid -->
<g id="node15" class="node"><title>madrid</title>
<ellipse fill="none" stroke="black" cx="-157.954" cy="220.074" rx="31.3957" ry="18"/>
<text text-anchor="middle" x="-157.954" y="223.774" font-family="Times,serif" font-size="14.00">madrid</text>
</g>
<!-- lisbon&#45;&#45;madrid -->
<g id="edge16" class="edge"><title>lisbon&#45;&#45;madrid</title>
<path fill="none" stroke="black" d="M-229.221,179.212C-214.666,187.557 -195.279,198.673 -180.4,207.204"/>
<text text-anchor="middle" x="-208.432" y="189.338" font-family="Times,serif" font-size="14.00" fill="#00008b">6</text>
</g>
<!-- nicosia -->
<g id="node16" class="node"><title>nicosia</title>
<ellipse fill="none" stroke="black" cx="199.407" cy="226.149" rx="30.5947" ry="18"/>
<text text-anchor="middle" x="199.407" y="229.849" font-family="Times,serif" font-size="14.00">nicosia</text>
</g>
<!-- paris&#45;&#45;berlin -->
<g id="edge18" class="edge"><title>paris&#45;&#45;berlin</title>
<path fill="none" stroke="black" d="M-132.243,56.4454C-112.797,39.4939 -80.4344,9.81446 -56.7172,-19.4088 -52.0049,-25.2151 -47.4534,-32.0532 -43.6826,-38.1792"/>
<text text-anchor="middle" x="-91.9543" y="23.1885" font-family="Times,serif" font-size="14.00" fill="#00008b">10</text>
</g>
<!-- paris&#45;&#45;london -->
<g id="edge21" class="edge"><title>paris&#45;&#45;london</title>
<path fill="none" stroke="black" d="M-165.168,55.7919C-181.354,40.7892 -206.189,17.7686 -222.54,2.61299"/>
<text text-anchor="middle" x="-197.292" y="25.4598" font-family="Times,serif" font-size="14.00" fill="#00008b">6</text>
</g>
<!-- paris&#45;&#45;luxembourg -->
<g id="edge17" class="edge"><title>paris&#45;&#45;luxembourg</title>
<path fill="none" stroke="black" d="M-140.972,53.3381C-133.629,37.5866 -122.849,14.4652 -115.425,-1.45908"/>
<text text-anchor="middle" x="-131.729" y="22.2043" font-family="Times,serif" font-size="14.00" fill="#00008b">4</text>
</g>
<!-- paris&#45;&#45;madrid -->
<g id="edge20" class="edge"><title>paris&#45;&#45;madrid</title>
<path fill="none" stroke="black" d="M-150.143,88.7284C-151.851,117.436 -155.169,173.245 -156.879,201.994"/>
<text text-anchor="middle" x="-160.51" y="141.546" font-family="Times,serif" font-size="14.00" fill="#00008b">12</text>
</g>
<!-- paris&#45;&#45;rome -->
<g id="edge19" class="edge"><title>paris&#45;&#45;rome</title>
<path fill="none" stroke="black" d="M-133.958,85.8515C-120.077,99.7559 -99.618,120.25 -85.752,134.14"/>
<text text-anchor="middle" x="-116.85" y="106.201" font-family="Times,serif" font-size="14.00" fill="#00008b">13</text>
</g>
<!-- prague -->
<g id="node18" class="node"><title>prague</title>
<ellipse fill="none" stroke="black" cx="31.2096" cy="-17.772" rx="29.4969" ry="18"/>
<text text-anchor="middle" x="31.2096" y="-14.072" font-family="Times,serif" font-size="14.00">prague</text>
</g>
<!-- prague&#45;&#45;berlin -->
<g id="edge22" class="edge"><title>prague&#45;&#45;berlin</title>
<path fill="none" stroke="black" d="M9.47044,-30.1864C2.05183,-34.4228 -6.21565,-39.144 -13.5368,-43.3249"/>
<text text-anchor="middle" x="-5.56973" y="-25.5765" font-family="Times,serif" font-size="14.00" fill="#00008b">3</text>
</g>
<!-- prague&#45;&#45;bratislava -->
<g id="edge24" class="edge"><title>prague&#45;&#45;bratislava</title>
<path fill="none" stroke="black" d="M60.6114,-19.0879C65.4408,-19.3041 70.5155,-19.5312 75.546,-19.7563"/>
<text text-anchor="middle" x="64.5033" y="-23.2187" font-family="Times,serif" font-size="14.00" fill="#00008b">3</text>
</g>
<!-- prague&#45;&#45;warsaw -->
<g id="edge23" class="edge"><title>prague&#45;&#45;warsaw</title>
<path fill="none" stroke="black" d="M39.13,-35.26C45.0031,-48.2276 52.9792,-65.8386 58.8763,-78.8591"/>
<text text-anchor="middle" x="45.4941" y="-60.8397" font-family="Times,serif" font-size="14.00" fill="#00008b">6</text>
</g>
<!-- riga -->
<g id="node19" class="node"><title>riga</title>
<ellipse fill="none" stroke="black" cx="97.2937" cy="-177.463" rx="27" ry="18"/>
<text text-anchor="middle" x="97.2937" y="-173.763" font-family="Times,serif" font-size="14.00">riga</text>
</g>
<!-- vilnius -->
<g id="node26" class="node"><title>vilnius</title>
<ellipse fill="none" stroke="black" cx="194.869" cy="-92.6319" rx="29.4969" ry="18"/>
<text text-anchor="middle" x="194.869" y="-88.9319" font-family="Times,serif" font-size="14.00">vilnius</text>
</g>
<!-- riga&#45;&#45;vilnius -->
<g id="edge25" class="edge"><title>riga&#45;&#45;vilnius</title>
<path fill="none" stroke="black" d="M113.846,-163.073C131.68,-147.568 159.916,-123.02 177.908,-107.378"/>
<text text-anchor="middle" x="142.318" y="-139.077" font-family="Times,serif" font-size="14.00" fill="#00008b">4</text>
</g>
<!-- rome&#45;&#45;ljubljana -->
<g id="edge27" class="edge"><title>rome&#45;&#45;ljubljana</title>
<path fill="none" stroke="black" d="M-49.596,137.784C-38.0877,131.536 -23.7773,123.767 -11.7566,117.241"/>
<text text-anchor="middle" x="-34.3685" y="123.817" font-family="Times,serif" font-size="14.00" fill="#00008b">7</text>
</g>
<!-- valletta -->
<g id="node24" class="node"><title>valletta</title>
<ellipse fill="none" stroke="black" cx="-11.0485" cy="240.788" rx="31.3957" ry="18"/>
<text text-anchor="middle" x="-11.0485" y="244.488" font-family="Times,serif" font-size="14.00">valletta</text>
</g>
<!-- rome&#45;&#45;valletta -->
<g id="edge26" class="edge"><title>rome&#45;&#45;valletta</title>
<path fill="none" stroke="black" stroke-dasharray="5,2" d="M-59.7463,166.026C-49.0533,182.442 -32.8575,207.306 -22.1193,223.792"/>
<text text-anchor="middle" x="-47.9498" y="191.083" font-family="Times,serif" font-size="14.00" fill="#00008b">14</text>
</g>
<!-- sofia -->
<g id="node21" class="node"><title>sofia</title>
<ellipse fill="none" stroke="black" cx="200.044" cy="105.73" rx="27" ry="18"/>
<text text-anchor="middle" x="200.044" y="109.43" font-family="Times,serif" font-size="14.00">sofia</text>
</g>
<!-- sofia&#45;&#45;athens -->
<g id="edge29" class="edge"><title>sofia&#45;&#45;athens</title>
<path fill="none" stroke="black" d="M185.81,121.309C170.903,137.624 147.62,163.107 132.671,179.468"/>
<text text-anchor="middle" x="155.756" y="146.571" font-family="Times,serif" font-size="14.00" fill="#00008b">8</text>
</g>
<!-- sofia&#45;&#45;bucharest -->
<g id="edge28" class="edge"><title>sofia&#45;&#45;bucharest</title>
<path fill="none" stroke="black" d="M200.961,87.7129C201.888,69.483 203.314,41.4499 204.245,23.1545"/>
<text text-anchor="middle" x="199.102" y="51.6583" font-family="Times,serif" font-size="14.00" fill="#00008b">6</text>
</g>
<!-- tallinn -->
<g id="node23" class="node"><title>tallinn</title>
<ellipse fill="none" stroke="black" cx="209.946" cy="-188.534" rx="27.8951" ry="18"/>
<text text-anchor="middle" x="209.946" y="-184.834" font-family="Times,serif" font-size="14.00">tallinn</text>
</g>
<!-- tallinn&#45;&#45;helsinki -->
<g id="edge31" class="edge"><title>tallinn&#45;&#45;helsinki</title>
<path fill="none" stroke="black" stroke-dasharray="5,2" d="M197.449,-204.981C189.729,-215.141 179.85,-228.141 172.092,-238.35"/>
<text text-anchor="middle" x="181.285" y="-225.447" font-family="Times,serif" font-size="14.00" fill="#00008b">4</text>
</g>
<!-- tallinn&#45;&#45;riga -->
<g id="edge30" class="edge"><title>tallinn&#45;&#45;riga</title>
<path fill="none" stroke="black" d="M182.1,-185.797C164.377,-184.056 141.55,-181.812 124.044,-180.092"/>
<text text-anchor="middle" x="149.491" y="-186.737" font-family="Times,serif" font-size="14.00" fill="#00008b">4</text>
</g>
<!-- vienna -->
<g id="node25" class="node"><title>vienna</title>
<ellipse fill="none" stroke="black" cx="-28.1945" cy="44.264" rx="29.4969" ry="18"/>
<text text-anchor="middle" x="-28.1945" y="47.964" font-family="Times,serif" font-size="14.00">vienna</text>
</g>
<!-- vienna&#45;&#45;berlin -->
<g id="edge32" class="edge"><title>vienna&#45;&#45;berlin</title>
<path fill="none" stroke="black" d="M-29.2733,26.0476C-30.3345,8.12744 -31.9453,-19.0728 -33.0041,-36.953"/>
<text text-anchor="middle" x="-34.6396" y="-9.26768" font-family="Times,serif" font-size="14.00" fill="#00008b">7</text>
</g>
<!-- vienna&#45;&#45;bratislava -->
<g id="edge34" class="edge"><title>vienna&#45;&#45;bratislava</title>
<path fill="none" stroke="black" d="M-4.50355,33.3988C20.7259,21.8279 60.6293,3.52724 87.3648,-8.73433"/>
<text text-anchor="middle" x="37.3658" y="23.7912" font-family="Times,serif" font-size="14.00" fill="#00008b">1</text>
</g>
<!-- vienna&#45;&#45;budapest -->
<g id="edge35" class="edge"><title>vienna&#45;&#45;budapest</title>
<path fill="none" stroke="black" d="M-0.123404,49.4854C17.8409,52.8268 41.2893,57.1882 60.4716,60.7562"/>
<text text-anchor="middle" x="26.2173" y="51.2358" font-family="Times,serif" font-size="14.00" fill="#00008b">3</text>
</g>
<!-- vienna&#45;&#45;ljubljana -->
<g id="edge36" class="edge"><title>vienna&#45;&#45;ljubljana</title>
<path fill="none" stroke="black" d="M-16.7511,60.8656C-11.2431,68.8563 -4.64145,78.4337 0.931836,86.5191"/>
<text text-anchor="middle" x="-11.4341" y="84.8568" font-family="Times,serif" font-size="14.00" fill="#00008b">4</text>
</g>
<!-- vienna&#45;&#45;prague -->
<g id="edge33" class="edge"><title>vienna&#45;&#45;prague</title>
<path fill="none" stroke="black" d="M-13.2043,28.6097C-4.26787,19.2773 7.04568,7.46249 16.0176,-1.90695"/>
<text text-anchor="middle" x="-2.10666" y="9.56527" font-family="Times,serif" font-size="14.00" fill="#00008b">4</text>
</g>
<!-- vienna&#45;&#45;rome -->
<g id="edge38" class="edge"><title>vienna&#45;&#45;rome</title>
<path fill="none" stroke="black" d="M-35.4024,62.0706C-43.2631,81.4901 -55.7646,112.374 -63.5831,131.69"/>
<text text-anchor="middle" x="-56.5086" y="93.1192" font-family="Times,serif" font-size="14.00" fill="#00008b">11</text>
</g>
<!-- vilnius&#45;&#45;warsaw -->
<g id="edge37" class="edge"><title>vilnius&#45;&#45;warsaw</title>
<path fill="none" stroke="black" d="M165.51,-93.5355C145.881,-94.1397 120.032,-94.9353 99.7226,-95.5604"/>
<text text-anchor="middle" x="129.371" y="-98.3401" font-family="Times,serif" font-size="14.00" fill="#00008b">6</text>
</g>
<!-- warsaw&#45;&#45;bratislava -->
<g id="edge39" class="edge"><title>warsaw&#45;&#45;bratislava</title>
<path fill="none" stroke="black" d="M77.8753,-79.5438C85.6809,-67.4366 96.1341,-51.2226 104.005,-39.0146"/>
<text text-anchor="middle" x="87.4156" y="-63.117" font-family="Times,serif" font-size="14.00" fill="#00008b">7</text>
</g>
<!-- zagreb -->
<g id="node28" class="node"><title>zagreb</title>
<ellipse fill="none" stroke="black" cx="47.1254" cy="171.854" rx="29.4969" ry="18"/>
<text text-anchor="middle" x="47.1254" y="175.554" font-family="Times,serif" font-size="14.00">zagreb</text>
</g>
<!-- zagreb&#45;&#45;budapest -->
<g id="edge41" class="edge"><title>zagreb&#45;&#45;budapest</title>
<path fill="none" stroke="black" d="M55.3336,154.113C64.2315,134.882 78.3507,104.366 87.2643,85.1016"/>
<text text-anchor="middle" x="67.7931" y="115.82" font-family="Times,serif" font-size="14.00" fill="#00008b">3</text>
</g>
<!-- zagreb&#45;&#45;ljubljana -->
<g id="edge40" class="edge"><title>zagreb&#45;&#45;ljubljana</title>
<path fill="none" stroke="black" d="M38.308,154.344C33.2357,144.272 26.8804,131.651 21.7931,121.549"/>
<text text-anchor="middle" x="26.5562" y="134.158" font-family="Times,serif" font-size="14.00" fill="#00008b">2</text>
</g>
</g>
</svg>
